<svg width="1645" height="2521" viewBox="0 0 1645 2521" fill="none" xmlns="http://www.w3.org/2000/svg">
<path fill-rule="evenodd" clip-rule="evenodd" d="M1113.91 786.422C1103.49 692.035 1087.73 595.219 1047.94 507.796C1034.26 394.742 1057.3 232.827 952.599 156.591C953.938 143.055 929.689 131.391 918.447 124.166C900.187 112.199 875.489 88.6872 853.875 101.859C847.056 99.777 830.241 108.298 822.5 89.8171C814.571 70.8862 815.723 32.9274 809.4 29.4621C812.19 2.10703 689.267 -16.196 657.184 22.4705C641.95 52.1284 659.448 61.5684 625.099 100.555C609.93 101.487 595.461 105.334 581.471 110.608C569.92 112.207 558.43 114.15 546.992 116.173C401.105 129.68 390.076 237.675 377.146 353.647C366.075 509.432 317.986 664.635 338.776 821.648C327.285 877.792 326.53 937.701 340.251 993.311C295.262 1059.04 327.873 1095.41 355.932 1157.91C360.681 1169.15 364.814 1180.73 366.916 1192.73C366.361 1202.02 366.423 1211.32 368.056 1220.55C372.818 1241.57 407.843 1238.63 409.404 1217.39C412.143 1203.44 411.294 1188.98 413.419 1174.96C413.295 1175.69 413.08 1177.09 413.08 1177.2C418.217 1141.93 426.497 1128.25 449.368 1101.34C478.734 1058.87 460.676 1005.5 467.378 957.97C469.215 942.087 471.644 926.416 473.269 910.504C483.172 916.33 493.935 921.191 505.182 924.227C498.096 978.923 510.421 1033.88 524.124 1086.78C561.214 1223.07 610.386 1363.02 589.028 1506.05C589.038 1505.98 565.74 1622.94 547.339 1680.67C525.09 1753.89 507.177 1827.23 475.7 1897.43C458.841 1947.96 423.174 1995.9 424.559 2050.3C412.245 2068.52 434.417 2090.4 453.956 2090.35C453.956 2115.01 440.936 2161.48 440.936 2161.48C438.891 2178.71 430.081 2200.65 443.4 2215.28C425.293 2261.41 418.931 2311.32 413.962 2360.14C412.063 2383.3 409.886 2411.21 434.673 2424.34C457.766 2434.33 484.65 2429.94 509.309 2432.91C533.166 2432.95 557.854 2439.2 581.317 2433.8C608.266 2426.13 613.691 2396.93 608.617 2373.59C605.343 2349.28 601.421 2325.05 597.129 2300.88C584.395 2248.27 580.831 2189.89 564.519 2139.28C573.657 2137.57 582.828 2132.97 589.028 2126.25C604.78 2125.73 616.394 2114.01 620.252 2100.14C623.038 2091.21 635.031 2089.37 643.108 2086.53C644.619 2094.24 649.033 2100.73 652.627 2107.75C649.557 2122.65 659.802 2140.07 676.715 2140.42C679.158 2142.77 681.428 2145.16 683.923 2147.4C664.69 2175.71 650.428 2207.68 646.815 2241.39C642.462 2267.25 637.908 2308.69 672.135 2316.34C685.057 2318.05 698.963 2321.36 711.625 2316.65C725.742 2322.98 740.752 2326.02 755.951 2328.73C821.095 2339.73 883.924 2338.81 949.61 2346.19C966.94 2348.6 1036.38 2355.73 1047.94 2346.19C1062.03 2349.07 1053.51 2338.56 1059.44 2328.73C1064.16 2321.36 1076.78 2307.23 1068.63 2303.13C1051.55 2295.76 1036.41 2281.26 1020.78 2273.02C947.727 2231.44 790.168 2160.64 791.262 2158.64C791.046 2160.05 792.217 2124.46 798.057 2115.01C806.273 2106.87 822.645 2108.3 831.221 2100.51C836.663 2100.76 877.493 2089.02 873.998 2069.34C869.52 2053.64 884.15 2034.39 873.998 2021.13C907.611 1714.08 985.827 1416.29 1028.99 1110.88C1029.95 1110.04 1030.89 1109.19 1031.85 1108.35C1054.1 1112.07 1071.39 1089.72 1078.15 1072.11C1081.41 1068.81 1084.54 1065.4 1087.41 1061.71C1105.55 1038.13 1105.88 1007.4 1107.94 979.34C1112.43 976.045 1115.31 970.924 1115.56 964.867C1116.28 946.828 1117.04 928.789 1117.8 910.76C1117.81 910.76 1117.81 910.76 1117.81 910.75C1123.39 901.782 1124.15 891.689 1122.56 881.408C1123.15 848.159 1128.27 817.012 1113.91 786.422Z" fill="#D08B5B"/>
<path fill-rule="evenodd" clip-rule="evenodd" d="M419.216 2360.89L428.162 2364.51C479.253 2385.17 539.213 2391.57 605.127 2385.78L607.126 2385.6L619.12 2384.51L614.812 2395.75C611.412 2404.63 604.693 2411.04 595.11 2415.23L594.337 2415.56L594.092 2415.64C570.267 2423.84 523.18 2426.91 484.873 2420.08C453.551 2414.49 428.099 2399.62 426.036 2397.62C419.246 2391.01 416.451 2382.24 417.845 2371.01L417.918 2370.45L419.216 2360.89ZM650.956 2278.99L648.819 2268.42L659.47 2270.09C732.156 2281.5 795.742 2288.85 917.851 2301.01L978.151 2307.01C1010.58 2310.27 1031.37 2312.43 1055.12 2315.04L1060.74 2315.66L1062.67 2318.76C1062.86 2319.07 1063.12 2319.35 1063.43 2319.59L1063.62 2319.72L1059.17 2333.48L1058.6 2333.84C1057.55 2334.52 1056.86 2334.93 1055.96 2335.33L1055.66 2335.47L1054.4 2336.02L1053.02 2336.08C973.176 2339.72 897.76 2337.69 825.763 2329.36L823.13 2329.05L820.114 2328.69C782.19 2324.25 670.782 2302.14 665.134 2298.65C657.785 2294.11 652.877 2287.77 651.062 2279.49L650.956 2278.99Z" fill="white"/>
<path fill-rule="evenodd" clip-rule="evenodd" d="M1131.51 895.376C1120.78 902.412 981.268 966.621 827.096 970.507C719.537 973.218 531.999 925 477.999 921C459.083 919.599 475.191 976.54 478.462 979.652C477.197 991.671 468.97 1011.8 469.868 1023.97C454.444 1019.97 405.999 1012 342.999 980C333.978 975.418 328.707 726.958 343.096 603.507C363 432.727 373.328 276.637 387.999 268C388.17 272.344 376.117 151.279 477.999 132C496.498 128.499 603.999 104 603.999 104C647.999 160 718.016 207 757.999 207C828.999 207 869.159 103.761 875.999 105C1025 132 1012.08 310.326 1048 508C1079.36 680.623 1128.69 849.096 1131.51 895.376Z" fill="white"/>
<path d="M1039.17 917.357L1050.12 914.418L1047.72 931.472L1040.22 983.512C1038.75 993.775 957.737 1449.69 957.737 1449.69C957.737 1449.69 874.668 1965.29 870.755 2031.86C870.572 2034.97 865.634 2078.14 860.077 2081.77L859.677 2082.03L859.28 2082.28C857.497 2083.38 844.051 2092.9 788.001 2102C756.275 2107.15 651.272 2116.86 651.272 2116.86L651.598 2107.57C651.888 2099.64 652.46 2086.28 652.828 2076.86L652.927 2074.28L653.081 2069.97L652.903 2069.93C650.654 2069.51 648.465 2070.47 644.621 2074.35C638.123 2080.9 629.972 2093.95 619.725 2115.01L616.787 2121.07C616.787 2121.07 463.939 2081.49 430.733 2061.52L429.708 2060.9L425.051 2058.07L426.753 2050.85C434.633 2017.68 539.896 1703.59 552.286 1661.82L553.437 1657.93L554.094 1655.69C571.079 1597.7 601.977 1337.02 580.001 1259C540.001 1117 505.472 958.653 500.6 942.542L499.884 940.194L499.159 937.849L495.315 925.52L507.928 928.292C682.117 966.567 864.063 963.459 1034.03 918.725L1039.17 917.357Z" fill="currentColor"/>
<path fill-rule="evenodd" clip-rule="evenodd" d="M656.45 19.1914C656.786 16.2473 660.714 16.2919 661.088 19.1914C665.218 54.2278 651.384 94.4511 617.359 110.779C642.872 133.315 660.828 163.444 691.443 180.457C755.678 222.307 848.506 183.149 862.791 109.344C846.937 105.707 817.396 106.015 812.583 87.4916C810.257 85.107 809.058 64.672 809.201 49.6013C809.056 46.7988 808.966 43.9944 808.871 41.2108C808.628 38.955 808.559 36.6556 808.583 34.3433C808.633 29.3257 816.144 29.4237 816.459 34.3433C816.59 36.3605 816.677 38.4024 816.758 40.4542C816.813 40.9959 816.888 41.5356 816.954 42.0763C817.987 45.8294 818.702 49.7518 819.546 53.3137C820 55.2309 820.47 57.1698 820.974 59.1058C821.698 64.1809 822.994 69.1391 825.214 73.8339C831.115 86.3171 845.666 97.0357 860.01 97.1516C863.083 97.1763 866.139 96.7248 869.214 96.802C874.222 96.9298 878.314 98.9142 882.783 100.935C886.818 102.759 890.607 103.993 894.5 103.987C1055.08 158.449 1032.97 357.813 1057.43 492.602C1082.35 626.463 1133.85 755.517 1141.43 892.318C1143.7 906.503 1128.03 911.766 1118.32 918.478C1115.73 954.169 1130.74 990.294 1120.33 1025.61C1110.69 1054.49 1071.85 1123.93 1034.73 1112.99C992.646 1432.87 894.828 1729.32 885.574 2053.09C894.944 2080.16 868.04 2099.81 843.225 2103.77L839.842 2105.72C828.528 2112.22 816.838 2118.57 804.461 2122.59C804.151 2122.77 803.842 2122.95 803.527 2123.12C802.924 2123.45 802.278 2123.65 801.617 2123.75C802.31 2132.04 804.928 2139.82 808.305 2147.39C859.792 2159.27 905.013 2190.45 953.429 2210.85C984.66 2230.06 1080 2257.82 1087.24 2291.57L1087.43 2292.6C1090.34 2307.72 1082.21 2326.38 1064.99 2327.81C1073.98 2334.46 1068.09 2347.9 1058.3 2350.49C1046.53 2353.63 1033.76 2352.29 1021.65 2353.26C907.408 2356.85 792.157 2346.76 680.8 2321.14C671.448 2318.98 661.708 2316.16 653.826 2310.57C605.5 2272.32 655.801 2191.35 667.68 2141.73C663.366 2141.04 659.101 2140.1 654.911 2138.85L653.974 2138.57C649.902 2137.34 645.692 2135.86 642.529 2132.99C642.4 2132.87 642.291 2132.74 642.168 2132.61C621.81 2132.32 642.544 2087.48 644.375 2075.49C636.101 2093.11 629.346 2111.92 619.437 2128.7C612.614 2139.05 597.652 2131.87 587.603 2131.14C590.945 2192.48 605.581 2252.28 620.614 2311.71C632.822 2361.06 653.779 2420.36 584.621 2435.36C536.987 2447.84 423.478 2443.07 403.174 2390.91C397.187 2348.44 410.3 2305.39 416.786 2263.53L417.923 2257.58C425.665 2216.89 432.823 2176.01 444.05 2136.08C445.595 2129.57 447.498 2123.2 449.544 2116.87C449.811 2113.18 450.005 2109.48 449.766 2105.78C449.453 2100.92 448.535 2096.17 447.561 2091.4C447.436 2090.8 447.324 2090.1 447.209 2089.34C427.152 2080.09 412.258 2069.62 410.336 2058.33C408.37 2047.61 412.345 2036.74 415.293 2026.51L415.465 2025.91C480.06 1799.03 602.93 1594.57 581.991 1352.55C574.288 1233.52 517.929 1124.04 508.419 1005.31C502.949 981.632 498.01 957.705 497.215 933.289C493.836 932.494 490.432 931.77 487.07 930.897C485.098 941.454 482.604 951.922 478.516 961.776C476.94 981.257 477.947 1000.95 481.337 1020.22C482.118 1024.66 479.957 1028.52 476.298 1029.94C485.088 1057.34 486.822 1091.7 464.154 1112.92L462.276 1114.16C442.584 1127.28 440.526 1130.99 435.945 1155.42L420.868 1217.16C418.977 1224.8 416.713 1232.59 411.265 1238.59C396.809 1254.51 373.799 1244.12 366.344 1227.15C359.54 1209.76 359.591 1190.63 354.623 1172.72C350.847 1154.23 340.375 1138.43 329.996 1122.93C306.794 1087.33 304.942 1037.76 330.813 1002.9C333.072 997.131 335.141 991.453 337.541 985.779C328.589 975.276 334.351 958.73 333.323 945.875C333.306 935.262 333.111 924.651 332.788 914.043C330.899 851.39 324.448 789.128 324.214 726.469C321.705 642.02 343.923 560.216 356.804 477.389C367.88 395.596 367.29 312.205 385.411 231.366C419.134 72.6902 608.371 133.184 640.386 70.6552C650.06 55.0091 654.391 37.2032 656.45 19.1914ZM425.297 2371.46C422.434 2392.56 437.25 2397.62 454.239 2404.04C497.555 2419.93 547.57 2423.7 591.598 2408.55C599.4 2405.25 604.982 2400.31 607.755 2393.07C546.651 2398.65 482.487 2394.59 425.297 2371.46ZM658.254 2277.5C662.088 2296.45 686.499 2298.68 702.845 2301.87C741.88 2310.04 781.296 2316.6 820.933 2321.24C897.742 2330.51 975.443 2332.1 1052.63 2328.58C1054.71 2327.68 1056.05 2325.95 1058.68 2325.96L1059.01 2325.96C1059.15 2325.96 1059.29 2325.98 1059.44 2325.98C1058.16 2325.14 1057.06 2324.02 1056.24 2322.71C923.572 2308.12 790.097 2298.19 658.254 2277.5ZM787.957 2115.01C756.092 2120.55 723.568 2123.46 691.394 2118.43C689.225 2145.07 678.917 2170.93 670.809 2196.42C715.262 2208.17 744.682 2158.84 784.445 2149.45C782.192 2137.67 782.991 2125.28 787.957 2115.01ZM459.528 2094.65C459.635 2094.83 459.691 2095.06 459.67 2095.32C459.516 2126.35 456.37 2157.27 451.799 2187.99C480.044 2157.54 527.315 2149.83 566.247 2162.49L566.076 2160.51C565.076 2149.26 563.58 2137.75 565.413 2126.61L563.629 2126.11C543.548 2120.57 496.332 2109.45 459.528 2094.65ZM1041.31 924.355C867.382 971.058 682.245 973.987 506.506 935.371C515.27 963.486 521.852 992.112 526.502 1021.13C536.467 1095.76 563.917 1166.28 582.409 1238.99C603.743 1324.81 608.826 1397.07 598.208 1484.73L597.882 1487.38C574.503 1683.96 478.766 1863.4 433.787 2054.24C486.719 2086.39 552.107 2098.95 612.801 2112.24C650.945 2033.53 683.177 1952.82 704.299 1868.07C780.39 1602.06 880.652 1351.59 858.382 1070.74C853.417 1067.48 855.032 1060.61 857.761 1056.21C856.818 1035.95 855.513 1015.71 853.377 995.56C853.306 994.879 854.446 994.744 854.586 995.4C858.117 1012.66 861.825 1029.87 864.927 1047.22C886.31 1025.45 900.138 998.237 918.943 974.616C921.619 992.254 884.962 1060.57 868.832 1071.14C903.201 1282.33 845.968 1475.66 784.152 1676.51C742.555 1820.73 702.139 1965.37 659.222 2109.19C659.742 2109.2 660.263 2109.21 660.784 2109.22C658.203 2104.47 712.824 2107.75 717.309 2105.36C757.534 2101.55 796.904 2092.02 836.029 2082.46L840.83 2081.22C850.578 2078.65 861.895 2074.97 863.648 2064.54L863.674 2063.23C863.685 2062.84 863.703 2062.53 863.735 2062.5L863.454 2061.33C863.393 2061.06 863.352 2060.85 863.361 2060.78L862.972 2060.2C862.524 2059.56 862.103 2058.98 862.7 2059.64C858.281 2054.81 857.88 2047.34 862.981 2042.72C872.541 1691.43 985.621 1369.92 1027.5 1022.56C1031.65 989.766 1036.72 957.094 1041.31 924.355ZM348.51 992.368C328.4 1017.36 324.946 1052.23 332.874 1082.69C337.038 1097.8 345.455 1110.53 354.133 1123.49C369.351 1145.1 376.449 1170.21 380.32 1195.94L380.429 1196.43C382.195 1204.7 383.291 1227.52 394.97 1224.95C398.037 1222.98 399.507 1214.31 400.586 1209.77L414.068 1154.55C417.971 1138.57 420.312 1119.57 434.14 1108.5L435.774 1107.46C447.07 1100.19 458.088 1091.76 459.861 1077.6C463.752 1060.24 456.517 1043.43 453.814 1026.56C417.751 1018.3 382.542 1006.66 348.51 992.368ZM1113.91 921.02L1112.7 921.616C1098.83 928.53 1057.44 950.907 1046.77 942.314C1047.02 993.463 1042.93 1044.36 1036.93 1095.1C1038.46 1094.76 1040.04 1094.8 1041.46 1095.32C1071.55 1086.99 1104.25 1030.08 1106.77 1000.84C1108.83 974.222 1103.54 946.457 1113.91 921.02ZM619.194 137.077L617.662 135.048C601.372 113.608 592.23 105.951 564.061 117.391C567.847 122.078 569.63 128.359 568.015 134.863L567.908 135.279C559.02 171.85 513.43 193.039 480.061 173.141C468.402 176.176 456.246 167.794 455.777 155.914C422.756 175.354 407.499 210.972 401.307 246.745C422.983 235.333 452.131 246.225 460.782 268.92C479.744 310.396 424.485 353.544 390.787 318.617C383.485 388.577 380.058 459.073 366.758 528.304C376.615 512.09 400.117 508.275 414.131 521.617C460.018 561.233 407.241 651.235 351.77 608.329C345.047 646.867 342.675 685.952 342.99 724.939C360.765 718.089 370.496 748.814 371.785 761.818C373.394 777.469 365.314 810.286 346.38 812.137L347.937 837.168C350.583 880.066 352.934 922.924 352.345 965.93C353.297 966.168 354.108 966.602 354.787 967.165C354.836 968.406 355.001 969.649 355.237 970.878C355.47 972.095 356.245 972.742 357.158 972.945L357.189 972.992C357.147 973.853 356.979 974.715 356.656 975.529C391.41 990.082 427.287 1002.1 463.829 1011.56C462.932 999.393 463.159 987.263 464.424 975.243C450.608 962.104 467.602 914.406 469.231 895.868C475.616 858.723 480.475 821.348 484.77 783.921C471.944 782.824 465.377 769.431 462.005 758.533C457.608 746.533 454.957 733.719 458.052 721.1C461.193 706.076 478.023 691.721 493.895 697.012L494.895 686.948C501.179 623.206 506.671 559.36 516.079 495.972C485.352 513.117 456.337 475.832 463.758 446.891C465.931 434.605 473.413 422.7 484.451 416.317C494.215 410.706 514.397 405.146 520.799 417.493C523.797 417.877 526.608 419.34 528.73 421.499C535.368 387.123 543.442 352.481 556.289 319.899C515.681 294.391 523.277 230.164 576.723 230.079C648.795 236.252 629.622 341.392 560.109 321.62C538.275 453.202 525.693 585.871 514.526 718.668C522.93 732.365 521.599 752.689 510.067 764.218C505.052 812.256 498.967 860.196 490.974 907.847C543.845 919.632 597.367 929.379 651.471 933.87C654.072 917.136 672.276 908.205 688.008 906.862C698.425 905.743 709.758 909.696 719.709 911.588C731.732 916.192 741.569 926.769 745.962 938.305C796.469 938.613 847.006 935.42 897.041 928.876C891.988 903.708 928.622 884.521 950.926 888.438C959.852 889.533 968.56 892.912 975.25 898.941C981.783 900.328 987.924 905.971 989.545 912.763C1007.26 908.549 1025.41 905.341 1042.52 899.081C1059.31 893.573 1064.8 879.748 1060.45 863.408C1012.95 882.431 972.654 806.961 1017.98 779.661C1023.78 775.367 1035.87 772.589 1039.27 780.709C1039.85 780.808 1040.42 780.931 1040.99 781.07C1037.22 765.54 1033.43 750.015 1029.64 734.491C1007.86 732.41 1000.59 700.465 1018.67 689.241C1012.52 663.487 1006.55 637.684 1000.95 611.807C971.107 617.958 946.371 580.845 952.686 554.032L952.887 553.223C956.452 538.648 967.299 524.316 983.322 521.895C979.537 499.995 976.154 478.021 973.306 455.975C969.178 451.582 967.33 445.031 968.937 439.234C970.101 396.856 961.504 353.222 964.969 310.239C933.301 348.717 867.317 322.526 882.389 271.752C881.508 224.717 948.383 208.047 970.934 249.629C973.349 240.759 976.453 231.934 977.972 222.789C978.203 221.738 979.824 221.951 979.92 222.936L979.925 223.048C983.285 283.198 980.812 343.74 987.269 403.824C1011.4 405.01 1021.26 462.546 995.043 466.676C1004.96 533.568 1019.85 599.588 1036.03 665.297C1064.15 658.078 1075.03 718.5 1051.88 728.662C1058.61 755.374 1065.32 782.084 1071.86 808.841L1071.99 808.783C1075.39 802.943 1084.45 803.593 1090.28 804.707C1109.52 811.796 1101.38 846.61 1080.43 844.478C1091.86 878.861 1084.62 910.762 1046.48 922.575L1046.5 923.669C1047.69 922.747 1049.12 921.999 1050.86 921.512C1074.69 914.825 1096.94 904.435 1117.47 890.967C1111.43 791.691 1082.68 695.454 1059.41 599.156C1032.68 594.896 1024.15 552.086 1045.01 536.321C1030.57 472.385 1026.41 407.005 1019.34 342.075C1000.09 337.879 995.221 306.991 1012.61 297.53C1001.59 216.895 960.109 148.925 882.71 114.358C880.201 125.835 876.036 136.979 870.463 147.409C870.985 147.438 871.49 147.501 871.984 147.584C872.113 147.815 872.27 148.044 872.483 148.263C876.675 152.549 879.361 157.372 881.064 162.535C881.229 163.645 881.412 164.753 881.6 165.86C881.412 166.313 881.203 166.762 880.962 167.202C889.255 198.71 850.388 214.816 824.145 207.768C820.076 206.968 817.418 204.69 815.999 201.809C769.537 226.777 708.899 221.515 667.044 188.502C636.622 204.74 597.453 166.819 619.194 137.077ZM401.17 843.508C445.626 836.975 460.167 908.373 424.337 928.197C412.784 935.053 396.898 935.646 385.523 928.073C355.236 909.746 363.66 847.273 401.17 843.508ZM570.389 800.786C626.968 800.544 631.808 887.285 582.457 902.903C545.757 913.487 509.807 872.855 528.628 838.975C530.367 817.899 548.621 801.095 570.389 800.786ZM746.686 808.657C749.629 786.251 773.142 764.844 796.807 771.012C818.492 776.472 824.147 801.727 827.992 820.431C836.735 859.158 792.697 898.423 755.591 877.095C731.888 862.966 728.423 828.386 746.686 808.657ZM873.05 677.89C880.981 665.319 898.747 659.781 913.251 664.162C953.032 676.809 948.306 740.294 916.295 759.217C861.306 787.869 817.451 705.496 873.05 677.89ZM613.963 714.98C613.033 677.253 652.135 642.911 688.866 664.356C748.317 704.019 687.433 795.012 630.392 744.014C620.226 737.483 614.219 726.883 613.963 714.98ZM540.001 618.72C512.486 576.059 559.742 512.816 604.84 553.692C620.307 569.497 619.616 598.479 610.662 617.266C596.096 642.366 555.645 642.954 540.001 618.72ZM739.798 538.717C761.271 518.195 798.792 517.98 815.107 545.059C834.446 578.463 811.366 635.612 767.771 632.896C722.476 629.698 710.067 566.31 739.798 538.717ZM627.293 472.016C592.837 436.879 630.248 380.516 676.978 394.089C753.35 422.064 687.069 527.329 627.293 472.016ZM815.379 464.089C784.689 408.358 859.243 358.248 897.185 411.89C926.286 460.474 847.719 516.559 815.379 464.089ZM715.278 305.55C688.723 259.098 735.129 207.482 783.886 234.746C853.266 282.712 764.458 374.962 715.278 305.55Z" fill="black"/>
</svg>
